<svg xmlns="http://www.w3.org/2000/svg" viewBox="0 0 64 64" fill="none">
  <rect width="64" height="64" rx="16" fill="#F6F1E8"/>
  <path d="M16 20C16 17.7909 17.7909 16 20 16H32.5C40.5081 16 47 22.4919 47 30.5C47 38.5081 40.5081 45 32.5 45H26C24.3431 45 23 43.6569 23 42C23 40.3431 24.3431 39 26 39H32.5C37.1944 39 41 35.1944 41 30.5C41 25.8056 37.1944 22 32.5 22H22V48H16V20Z" fill="#171717"/>
  <path d="M35 24H41.5C45.6421 24 49 27.3579 49 31.5C49 35.6421 45.6421 39 41.5 39H35V24Z" fill="#C96B3B"/>
  <circle cx="41.5" cy="31.5" r="2.5" fill="#F6F1E8"/>
</svg>
